<?xml version="1.0" standalone="no"?>
<!DOCTYPE svg PUBLIC "-//W3C//DTD SVG 20010904//EN"
 "http://www.w3.org/TR/2001/REC-SVG-20010904/DTD/svg10.dtd">
<svg version="1.0" xmlns="http://www.w3.org/2000/svg"
 width="260.000000pt" height="260.000000pt" viewBox="0 0 260.000000 260.000000"
 preserveAspectRatio="xMidYMid meet">
<metadata>
Created by potrace 1.11, written by Peter Selinger 2001-2013
</metadata>
<g transform="translate(0.000000,260.000000) scale(0.100000,-0.100000)"
fill="#000000" stroke="none">
<path d="M0 1300 l0 -1300 1300 0 1300 0 0 1300 0 1300 -1300 0 -1300 0 0
-1300z m1470 965 c41 -9 108 -29 148 -45 477 -185 675 -730 421 -1157 -73
-122 -251 -275 -393 -338 -128 -56 -299 -95 -423 -95 -88 0 -138 64 -103 130
16 31 40 38 153 50 292 30 516 174 628 403 109 226 59 498 -126 682 -84 83
-154 126 -272 168 -87 31 -91 31 -340 37 -249 5 -252 5 -277 29 -50 47 -28
136 39 155 44 12 470 -3 545 -19z m-116 -351 c94 -24 169 -69 240 -145 88 -92
109 -150 104 -280 -3 -84 -8 -104 -37 -165 -81 -164 -258 -274 -443 -274 -80
0 -108 19 -108 73 0 49 32 73 105 82 166 19 295 144 295 285 0 103 -60 187
-170 238 -29 14 -90 17 -377 22 l-343 5 -27 27 c-37 37 -36 93 2 125 26 23 27
23 362 23 273 0 346 -3 397 -16z m-639 -759 l25 -24 0 -346 0 -345 251 0 251
0 29 -29 c38 -39 39 -84 2 -123 l-27 -28 -322 0 c-310 0 -322 1 -348 21 l-26
20 0 415 0 415 25 24 c18 19 35 25 70 25 35 0 52 -6 70 -25z"/>
</g>
</svg>
